<svg width="74" height="31" viewBox="0 0 74 31" fill="none" xmlns="http://www.w3.org/2000/svg">
<path d="M0 0.280001H7.12C8.05333 0.280001 8.82667 0.400001 9.44 0.640001C10.0533 0.880001 10.5333 1.21333 10.88 1.64C11.2533 2.04 11.5067 2.54667 11.64 3.16C11.8 3.74667 11.88 4.4 11.88 5.12V9.68C11.88 10.9333 11.6533 11.88 11.2 12.52C10.7467 13.16 10.2267 13.5867 9.64 13.8C9.93333 13.9067 10.2267 14.0533 10.52 14.24C10.84 14.4267 11.12 14.6933 11.36 15.04C11.6267 15.36 11.84 15.7733 12 16.28C12.16 16.7867 12.24 17.4133 12.24 18.16V24.6C12.24 26.1733 11.8667 27.48 11.12 28.52C10.3733 29.5333 9.14667 30.04 7.44 30.04H0V0.280001ZM4.52 16.48V25.84H5.88C6.6 25.84 7.06667 25.68 7.28 25.36C7.52 25.0133 7.64 24.5067 7.64 23.84V18.4C7.64 17.7867 7.52 17.32 7.28 17C7.06667 16.6533 6.6 16.48 5.88 16.48H4.52ZM4.52 4.32V12.04H5.88C6.49333 12.04 6.90667 11.8533 7.12 11.48C7.33333 11.08 7.44 10.5733 7.44 9.96V6.2C7.44 5.58667 7.33333 5.12 7.12 4.8C6.90667 4.48 6.49333 4.32 5.88 4.32H4.52Z" fill="#242424"/>
<path d="M18.7091 12.52H19.9091C20.5224 12.52 20.9491 12.3333 21.1891 11.96C21.4291 11.5867 21.5491 11.0667 21.5491 10.4V6.24C21.5491 5.6 21.4424 5.12 21.2291 4.8C21.0424 4.48 20.6024 4.32 19.9091 4.32H18.7091V12.52ZM18.7091 30.04H14.1891V0.280001H21.5091C23.0291 0.280001 24.1624 0.626667 24.9091 1.32C25.6557 2.01333 26.0291 3.2 26.0291 4.88V10.16C26.0291 10.7733 25.9624 11.3067 25.8291 11.76C25.6957 12.1867 25.5357 12.56 25.3491 12.88C25.1624 13.1733 24.9491 13.4133 24.7091 13.6C24.4691 13.76 24.2557 13.88 24.0691 13.96C24.5757 14.1733 25.0291 14.52 25.4291 15C25.8291 15.4533 26.0291 16.1867 26.0291 17.2V27.64C26.0291 28.2533 26.0691 28.72 26.1491 29.04C26.2557 29.36 26.3624 29.6267 26.4691 29.84V30.04H21.9891C21.8824 29.88 21.7757 29.64 21.6691 29.32C21.5891 28.9733 21.5491 28.4 21.5491 27.6V18.64C21.5491 17.9733 21.4424 17.4933 21.2291 17.2C21.0424 16.9067 20.5891 16.76 19.8691 16.76H18.7091V30.04Z" fill="#242424"/>
<path d="M32.6637 30.04H28.1437V0.280001H32.6637V30.04Z" fill="#242424"/>
<path d="M34.9109 0.280001H41.8309C42.7909 0.280001 43.5909 0.413334 44.2309 0.680001C44.8976 0.946667 45.4309 1.33333 45.8309 1.84C46.2309 2.32 46.5109 2.92 46.6709 3.64C46.8309 4.33333 46.9109 5.12 46.9109 6V24.12C46.9109 25.96 46.5243 27.4133 45.7509 28.48C45.0043 29.52 43.6976 30.04 41.8309 30.04H34.9109V0.280001ZM39.4309 25.72H40.5109C41.2043 25.72 41.6709 25.5333 41.9109 25.16C42.1509 24.7867 42.2709 24.2 42.2709 23.4V6.64C42.2709 5.78667 42.1509 5.18667 41.9109 4.84C41.6709 4.49333 41.2709 4.32 40.7109 4.32H39.4309V25.72Z" fill="#242424"/>
<path d="M53.2609 30.44C51.9276 30.44 50.8743 29.92 50.1009 28.88C49.3276 27.84 48.9409 26.5467 48.9409 25V6.4C48.9409 5.57333 49.0209 4.77333 49.1809 4C49.3676 3.22667 49.6743 2.54667 50.1009 1.96C50.5276 1.37333 51.1009 0.906667 51.8209 0.56C52.5409 0.186667 53.4343 0 54.5009 0H55.3809C56.5809 0 57.5409 0.186667 58.2609 0.56C58.9809 0.906667 59.5276 1.4 59.9009 2.04C60.2743 2.65333 60.5143 3.36 60.6209 4.16C60.7276 4.96 60.7809 5.8 60.7809 6.68V9.72H56.3809V6.36C56.3809 5.69333 56.2743 5.18667 56.0609 4.84C55.8743 4.49333 55.5009 4.32 54.9409 4.32C54.0076 4.32 53.5409 5 53.5409 6.36V23.76C53.5409 25.1733 54.0343 25.88 55.0209 25.88C55.6076 25.88 56.0343 25.7067 56.3009 25.36C56.5676 24.9867 56.7009 24.52 56.7009 23.96V16.52H54.6609V11.96H60.9809V30.04H58.4209C58.3943 29.96 58.3009 29.6133 58.1409 29C58.0076 28.3867 57.8476 27.76 57.6609 27.12C57.5809 27.36 57.4209 27.68 57.1809 28.08C56.9676 28.4533 56.6876 28.8133 56.3409 29.16C55.9943 29.5067 55.5809 29.8 55.1009 30.04C54.6209 30.3067 54.1009 30.44 53.5409 30.44H53.2609Z" fill="#242424"/>
<path d="M73.3737 0.280001V4.6H67.6137V12.4H72.1338V16.92H67.6137V25.52H73.6138V30.04H63.0938V0.280001H73.3737Z" fill="#242424"/>
</svg>
