<svg width="78" height="32" viewBox="0 0 78 32" fill="none" xmlns="http://www.w3.org/2000/svg">
<path d="M2 1.28H9.12C10.0533 1.28 10.8267 1.4 11.44 1.64C12.0533 1.88 12.5333 2.21333 12.88 2.64C13.2533 3.04 13.5067 3.54667 13.64 4.16C13.8 4.74667 13.88 5.4 13.88 6.12V10.68C13.88 11.9333 13.6533 12.88 13.2 13.52C12.7467 14.16 12.2267 14.5867 11.64 14.8C11.9333 14.9067 12.2267 15.0533 12.52 15.24C12.84 15.4267 13.12 15.6933 13.36 16.04C13.6267 16.36 13.84 16.7733 14 17.28C14.16 17.7867 14.24 18.4133 14.24 19.16V25.6C14.24 27.1733 13.8667 28.48 13.12 29.52C12.3733 30.5333 11.1467 31.04 9.44 31.04H2V1.28ZM6.52 17.48V26.84H7.88C8.6 26.84 9.06667 26.68 9.28 26.36C9.52 26.0133 9.64 25.5067 9.64 24.84V19.4C9.64 18.7867 9.52 18.32 9.28 18C9.06667 17.6533 8.6 17.48 7.88 17.48H6.52ZM6.52 5.32V13.04H7.88C8.49333 13.04 8.90667 12.8533 9.12 12.48C9.33333 12.08 9.44 11.5733 9.44 10.96V7.2C9.44 6.58667 9.33333 6.12 9.12 5.8C8.90667 5.48 8.49333 5.32 7.88 5.32H6.52Z" fill="white"/>
<path d="M20.7091 13.52H21.9091C22.5224 13.52 22.9491 13.3333 23.1891 12.96C23.4291 12.5867 23.5491 12.0667 23.5491 11.4V7.24C23.5491 6.6 23.4424 6.12 23.2291 5.8C23.0424 5.48 22.6024 5.32 21.9091 5.32H20.7091V13.52ZM20.7091 31.04H16.1891V1.28H23.5091C25.0291 1.28 26.1624 1.62667 26.9091 2.32C27.6557 3.01333 28.0291 4.2 28.0291 5.88V11.16C28.0291 11.7733 27.9624 12.3067 27.8291 12.76C27.6957 13.1867 27.5357 13.56 27.3491 13.88C27.1624 14.1733 26.9491 14.4133 26.7091 14.6C26.4691 14.76 26.2557 14.88 26.0691 14.96C26.5757 15.1733 27.0291 15.52 27.4291 16C27.8291 16.4533 28.0291 17.1867 28.0291 18.2V28.64C28.0291 29.2533 28.0691 29.72 28.1491 30.04C28.2557 30.36 28.3624 30.6267 28.4691 30.84V31.04H23.9891C23.8824 30.88 23.7757 30.64 23.6691 30.32C23.5891 29.9733 23.5491 29.4 23.5491 28.6V19.64C23.5491 18.9733 23.4424 18.4933 23.2291 18.2C23.0424 17.9067 22.5891 17.76 21.8691 17.76H20.7091V31.04Z" fill="white"/>
<path d="M34.6637 31.04H30.1437V1.28H34.6637V31.04Z" fill="white"/>
<path d="M36.9109 1.28H43.8309C44.7909 1.28 45.5909 1.41333 46.2309 1.68C46.8976 1.94667 47.4309 2.33333 47.8309 2.84C48.2309 3.32 48.5109 3.92 48.6709 4.64C48.8309 5.33333 48.9109 6.12 48.9109 7V25.12C48.9109 26.96 48.5243 28.4133 47.7509 29.48C47.0043 30.52 45.6976 31.04 43.8309 31.04H36.9109V1.28ZM41.4309 26.72H42.5109C43.2043 26.72 43.6709 26.5333 43.9109 26.16C44.1509 25.7867 44.2709 25.2 44.2709 24.4V7.64C44.2709 6.78667 44.1509 6.18667 43.9109 5.84C43.6709 5.49333 43.2709 5.32 42.7109 5.32H41.4309V26.72Z" fill="white"/>
<path d="M55.2609 31.44C53.9276 31.44 52.8743 30.92 52.1009 29.88C51.3276 28.84 50.9409 27.5467 50.9409 26V7.4C50.9409 6.57333 51.0209 5.77333 51.1809 5C51.3676 4.22667 51.6743 3.54667 52.1009 2.96C52.5276 2.37333 53.1009 1.90667 53.8209 1.56C54.5409 1.18667 55.4343 1 56.5009 1H57.3809C58.5809 1 59.5409 1.18667 60.2609 1.56C60.9809 1.90667 61.5276 2.4 61.9009 3.04C62.2743 3.65333 62.5143 4.36 62.6209 5.16C62.7276 5.96 62.7809 6.8 62.7809 7.68V10.72H58.3809V7.36C58.3809 6.69333 58.2743 6.18667 58.0609 5.84C57.8743 5.49333 57.5009 5.32 56.9409 5.32C56.0076 5.32 55.5409 6 55.5409 7.36V24.76C55.5409 26.1733 56.0343 26.88 57.0209 26.88C57.6076 26.88 58.0343 26.7067 58.3009 26.36C58.5676 25.9867 58.7009 25.52 58.7009 24.96V17.52H56.6609V12.96H62.9809V31.04H60.4209C60.3943 30.96 60.3009 30.6133 60.1409 30C60.0076 29.3867 59.8476 28.76 59.6609 28.12C59.5809 28.36 59.4209 28.68 59.1809 29.08C58.9676 29.4533 58.6876 29.8133 58.3409 30.16C57.9943 30.5067 57.5809 30.8 57.1009 31.04C56.6209 31.3067 56.1009 31.44 55.5409 31.44H55.2609Z" fill="white"/>
<path d="M75.3737 1.28V5.6H69.6137V13.4H74.1338V17.92H69.6137V26.52H75.6138V31.04H65.0938V1.28H75.3737Z" fill="white"/>
</svg>
