<svg width="32" height="32" viewBox="0 0 32 32" fill="none" xmlns="http://www.w3.org/2000/svg">
<rect width="32" height="32" rx="8" fill="white"/>
<g clip-path="url(#clip0_655_1608)">
<path d="M2.45999 16C2.45999 14.3425 3.80246 13 5.45999 13H13.0216L14.2203 15.3973H5.45999C5.13122 15.3973 4.85725 15.6644 4.85725 16C4.85725 16.3356 5.12438 16.6027 5.45999 16.6027H12.9668C13.4805 16.6027 13.9805 16.3904 14.3299 16.0205L15.9326 14.3356C16.7408 13.4932 17.871 13.0068 19.0353 13.0068H26.5422C28.1997 13.0068 29.5422 14.3493 29.5422 16.0068C29.5422 17.6644 28.1997 19.0068 26.5422 19.0068H19.0011L17.7956 16.6096H26.5422C26.871 16.6096 27.1449 16.3425 27.1449 16.0068C27.1449 15.6712 26.8778 15.4041 26.5422 15.4041H19.0353C18.5216 15.4041 18.0216 15.6164 17.6723 15.9863L16.0696 17.6712C15.2614 18.5137 14.1312 19 12.9668 19H5.45999C3.80246 19 2.45999 17.6575 2.45999 16Z" fill="black"/>
</g>
<defs>
<clipPath id="clip0_655_1608">
<rect width="27.089" height="6" fill="white" transform="translate(2.45999 13)"/>
</clipPath>
</defs>
</svg>
