<svg width="12" height="12" viewBox="0 0 12 12" fill="none" xmlns="http://www.w3.org/2000/svg">
<path fill-rule="evenodd" clip-rule="evenodd" d="M5.625 1.875V0.75H6.375V1.875H5.625ZM7.73776 2.24018L8.30026 1.2659L8.94978 1.6409L8.38728 2.61518L7.73776 2.24018ZM6 8.625C7.44975 8.625 8.625 7.44975 8.625 6C8.625 4.55025 7.44975 3.375 6 3.375C4.55025 3.375 3.375 4.55025 3.375 6C3.375 7.44975 4.55025 8.625 6 8.625ZM6 9.375C7.86396 9.375 9.375 7.86396 9.375 6C9.375 4.13604 7.86396 2.625 6 2.625C4.13604 2.625 2.625 4.13604 2.625 6C2.625 7.86396 4.13604 9.375 6 9.375ZM10.125 5.625H11.25V6.375H10.125V5.625ZM10.3591 3.05024L9.38484 3.61274L9.75984 4.26226L10.7341 3.69976L10.3591 3.05024ZM3.05024 1.6409L3.61274 2.61518L4.26226 2.24018L3.69976 1.2659L3.05024 1.6409ZM2.24016 4.26226L1.26588 3.69976L1.64088 3.05024L2.61516 3.61274L2.24016 4.26226ZM5.625 10.125V11.25H6.375V10.125H5.625ZM1.875 5.625H0.75V6.375H1.875V5.625ZM1.26586 8.30024L2.24014 7.73774L2.61514 8.38726L1.64086 8.94976L1.26586 8.30024ZM3.61276 9.38489L3.05026 10.3592L3.69978 10.7342L4.26228 9.75989L3.61276 9.38489ZM8.30024 10.7342L7.73774 9.75989L8.38726 9.38489L8.94976 10.3592L8.30024 10.7342ZM9.38486 8.38726L10.3591 8.94976L10.7341 8.30024L9.75986 7.73774L9.38486 8.38726Z" fill="#9F9F9F"/>
</svg>
